<?xml version="1.0" encoding="utf-8"?>
<!-- Generator: Adobe Illustrator 23.0.0, SVG Export Plug-In . SVG Version: 6.00 Build 0)  -->
<svg version="1.1" id="Layer_1" xmlns="http://www.w3.org/2000/svg" xmlns:xlink="http://www.w3.org/1999/xlink" x="0px" y="0px"
	 viewBox="0 0 287.5 70" style="enable-background:new 0 0 287.5 70;" xml:space="preserve">
<style type="text/css">
	.st0{fill:#4F595A;}
	.st1{fill-rule:evenodd;clip-rule:evenodd;fill:url(#SVGID_1_);}
	.st2{fill-rule:evenodd;clip-rule:evenodd;fill:url(#SVGID_2_);}
	.st3{fill-rule:evenodd;clip-rule:evenodd;fill:url(#SVGID_3_);}
	.st4{fill-rule:evenodd;clip-rule:evenodd;fill:url(#SVGID_4_);}
	.st5{fill-rule:evenodd;clip-rule:evenodd;fill:url(#SVGID_5_);}
</style>
<g>
	<g>
		<path class="st0" d="M128.95,43.92c-1.71-0.12-2.56-0.93-2.56-2.56V30.79c-0.12-2.14-1.28-3.19-3.57-3.19s-3.46,1.05-3.5,3.19
			v13.13h-5.24V31.83c0-5.87,2.95-8.78,8.82-8.78c5.87,0,8.74,2.91,8.7,8.78v12.08H128.95z"/>
		<path class="st0" d="M136.6,17.5c1.71,0,2.53,0.85,2.49,2.53v1.51h-5.17V17.5H136.6z M136.6,23.37c1.67,0,2.49,0.82,2.49,2.49
			v18.06h-5.17V23.37H136.6z"/>
		<path class="st0" d="M147.32,28.73h-5.17c0.62-3.81,3.3-5.67,8.04-5.67c5.67,0,8.55,1.86,8.66,5.67v6.99
			c0,5.67-3.42,8.2-8.97,8.59c-4.93,0.39-8.35-1.9-8.35-6.45c0.12-4.93,3.69-6.25,8.9-6.76c2.21-0.27,3.34-0.93,3.34-2.06
			c-0.12-1.17-1.2-1.75-3.34-1.75C148.61,27.29,147.6,27.76,147.32,28.73z M153.85,35.49v-1.9c-1.2,0.51-2.6,0.93-4.12,1.24
			c-2.06,0.39-3.11,1.36-3.11,2.87c0.12,1.63,0.97,2.41,2.6,2.41C152.1,40.11,153.85,38.4,153.85,35.49z"/>
		<path class="st0" d="M161.04,33.66c0-6.84,3.19-10.26,9.56-10.37c6.41-0.04,9.63,2.99,9.63,9.17v12.16c0,5.17-3.26,7.77-9.83,7.89
			c-4.66,0-7.61-2.18-8.82-6.53h5.71c0.35,1.48,1.55,2.18,3.69,2.18c2.72,0,4.12-1.59,4.12-4.78c0,0,0,0.04,0-2.1
			c-1.32,2.02-3.3,3.03-5.87,3.03C163.76,44.3,161.04,40.73,161.04,33.66z M175.1,33.82c0.04-4.16-1.4-6.22-4.35-6.22
			c-2.95,0-4.39,2.06-4.39,6.22c0.12,3.96,1.51,5.94,4.31,5.94C173.47,39.76,174.94,37.78,175.1,33.82z"/>
		<path class="st0" d="M187.96,28.73h-5.17c0.62-3.81,3.3-5.67,8.04-5.67c5.67,0,8.55,1.86,8.66,5.67v6.99
			c0,5.67-3.42,8.2-8.97,8.59c-4.93,0.39-8.35-1.9-8.35-6.45c0.12-4.93,3.69-6.25,8.9-6.76c2.21-0.27,3.34-0.93,3.34-2.06
			c-0.12-1.17-1.2-1.75-3.34-1.75C189.24,27.29,188.23,27.76,187.96,28.73z M194.48,35.49v-1.9c-1.2,0.51-2.6,0.93-4.12,1.24
			c-2.06,0.39-3.11,1.36-3.11,2.87c0.12,1.63,0.97,2.41,2.6,2.41C192.74,40.11,194.48,38.4,194.48,35.49z"/>
		<path class="st0" d="M229.29,23.37l-5.71,20.55h-5.36l-3.11-14.72l-3.26,14.72h-5.4l-5.63-20.55h5.24l3.26,14.26l2.95-14.26h5.48
			l2.8,14.26l2.8-12.35c0.39-1.28,1.24-1.9,2.52-1.9H229.29z"/>
		<path class="st0" d="M239.12,44.38c-6.22-0.19-9.32-3.81-9.32-10.8c0-6.99,3.15-10.49,9.4-10.53c6.53,0,9.59,4,9.21,12.04h-13.29
			c0.19,3.15,1.55,4.74,4.08,4.74c1.2,0,2.33-0.5,3.34-1.48c0.47-0.5,1.05-0.74,1.75-0.74h3.81
			C246.97,41.97,244.17,44.38,239.12,44.38z M235.2,31.41h7.73c-0.31-2.72-1.59-4.12-3.81-4.12
			C236.91,27.29,235.58,28.69,235.2,31.41z"/>
		<path class="st0" d="M255.98,26.24c1.32-2.14,3.26-3.19,5.83-3.19c5.48,0.19,8.2,3.77,8.2,10.76c0,6.84-3.19,10.29-9.56,10.41
			c-6.41,0.04-9.63-3.03-9.63-9.21V17.5h2.6c1.71,0,2.56,0.89,2.56,2.6V26.24z M255.98,33.58c-0.04,4.16,1.36,6.25,4.31,6.25
			c2.95,0,4.43-2.1,4.43-6.25c-0.12-3.96-1.55-5.9-4.35-5.9C257.57,27.68,256.13,29.62,255.98,33.58z"/>
		<path class="st0" d="M158.86,33.58v10.33h-2.42c-1.43,0-2.59-1.16-2.59-2.59v-7.74H158.86z"/>
		<path class="st0" d="M114.07,33.39V23.05h2.65c1.43,0,2.59,1.16,2.59,2.59v7.74H114.07z"/>
		<path class="st0" d="M199.49,33.58v10.33h-2.42c-1.43,0-2.59-1.16-2.59-2.59v-7.74H199.49z"/>
		<path class="st0" d="M180.23,33.39V23.05h-2.54c-1.43,0-2.59,1.16-2.59,2.59v7.74H180.23z"/>
		<path class="st0" d="M250.81,33.89l0.15,10.33h2.42c1.43,0,2.59-1.16,2.59-2.59v-7.74H250.81z"/>
	</g>
	<g>
		<linearGradient id="SVGID_1_" gradientUnits="userSpaceOnUse" x1="94.8631" y1="22.9734" x2="81.6877" y2="45.7939">
			<stop  offset="0" style="stop-color:#04BEFE"/>
			<stop  offset="1" style="stop-color:#4481EB"/>
		</linearGradient>
		<path class="st1" d="M97.1,17.5c-2.77,0-5.47,1.44-6.96,4.02L72.26,52.5h11.12l20.21-35H97.1z"/>
		<linearGradient id="SVGID_2_" gradientUnits="userSpaceOnUse" x1="56.2148" y1="15.091" x2="79.2035" y2="54.9087">
			<stop  offset="0" style="stop-color:#04BEFE"/>
			<stop  offset="1" style="stop-color:#4481EB"/>
		</linearGradient>
		<path class="st2" d="M65.49,21.52C64,18.94,61.3,17.5,58.53,17.5h-6.49l20.21,35h11.13L65.49,21.52z"/>
		<linearGradient id="SVGID_3_" gradientUnits="userSpaceOnUse" x1="28.3084" y1="43.4147" x2="42.4803" y2="18.8683">
			<stop  offset="0" style="stop-color:#04BEFE"/>
			<stop  offset="1" style="stop-color:#4481EB"/>
		</linearGradient>
		<path class="st3" d="M30.94,48.48c-1.49,2.57-4.18,4.02-6.96,4.02H17.5l20.21-35h11.13L30.94,48.48z"/>
		<linearGradient id="SVGID_4_" gradientUnits="userSpaceOnUse" x1="41.8834" y1="15.0925" x2="64.8707" y2="54.9077">
			<stop  offset="0" style="stop-color:#04BEFE"/>
			<stop  offset="1" style="stop-color:#4481EB"/>
		</linearGradient>
		<path class="st4" d="M62.56,52.5c-2.77,0-5.47-1.44-6.96-4.02L37.71,17.5h11.12l20.21,35H62.56z"/>
		<linearGradient id="SVGID_5_" gradientUnits="userSpaceOnUse" x1="78.5135" y1="18.7177" x2="86.3876" y2="32.3559">
			<stop  offset="0" style="stop-color:#04BEFE"/>
			<stop  offset="1" style="stop-color:#4481EB"/>
		</linearGradient>
		<path class="st5" d="M82.78,17.5c-2.78,0-5.47,1.44-6.96,4.02l-3.56,6.16l5.55,9.63L89.25,17.5H82.78z"/>
	</g>
</g>
</svg>
